<svg width="29" height="28" viewBox="0 0 29 28" fill="none" xmlns="http://www.w3.org/2000/svg">
<g clip-path="url(#clip0_512_22)">
<path d="M0 2.0055C0 0.89775 0.953375 0 2.12969 0H26.8703C28.0466 0 29 0.89775 29 2.0055V25.9945C29 27.1023 28.0466 28 26.8703 28H2.12969C0.953375 28 0 27.1023 0 25.9945V2.0055ZM8.95919 23.4395V10.7958H4.60738V23.4395H8.95919ZM6.78419 9.0685C8.30125 9.0685 9.24556 8.099 9.24556 6.8845C9.21837 5.64375 8.30306 4.7005 6.81319 4.7005C5.32331 4.7005 4.35 5.6455 4.35 6.8845C4.35 8.099 5.29431 9.0685 6.75519 9.0685H6.78419ZM15.6799 23.4395V16.3783C15.6799 16.0002 15.7089 15.6222 15.8249 15.3527C16.1385 14.5985 16.8544 13.8162 18.0579 13.8162C19.633 13.8162 20.2619 14.9748 20.2619 16.6758V23.4395H24.6138V16.1875C24.6138 12.3025 22.4678 10.4965 19.604 10.4965C17.2949 10.4965 16.2599 11.7215 15.6799 12.5842V12.628H15.6509C15.6606 12.6134 15.6702 12.5988 15.6799 12.5842V10.7958H11.3299C11.3843 11.9823 11.3299 23.4395 11.3299 23.4395H15.6799Z" fill="#0057DA"/>
</g>
<defs>
<clipPath id="clip0_512_22">
<rect width="29" height="28" fill="white"/>
</clipPath>
</defs>
</svg>
