<svg width="29" height="28" viewBox="0 0 29 28" fill="none" xmlns="http://www.w3.org/2000/svg">
<g clip-path="url(#clip0_512_19)">
<path d="M29.0001 14.0858C29.0001 6.30529 22.5078 -0.00170898 14.5001 -0.00170898C6.4889 4.10157e-05 -0.003479 6.30529 -0.003479 14.0875C-0.003479 21.1173 5.2999 26.9448 12.2309 28.0018V18.158H8.55152V14.0875H12.2345V10.9813C12.2345 7.45154 14.4005 5.50204 17.7119 5.50204C19.2996 5.50204 20.9581 5.77679 20.9581 5.77679V9.24179H19.1293C17.3295 9.24179 16.7676 10.3285 16.7676 11.4433V14.0858H20.7877L20.1461 18.1563H16.7658V28C23.6968 26.943 29.0001 21.1155 29.0001 14.0858Z" fill="#0057DA"/>
</g>
<defs>
<clipPath id="clip0_512_19">
<rect width="29" height="28" fill="white"/>
</clipPath>
</defs>
</svg>
