<svg width="150" height="27" viewBox="0 0 150 27" fill="none" xmlns="http://www.w3.org/2000/svg">
<path d="M14.2605 0V6.77195H9.45745C6.9336 6.81749 4.5285 7.85206 2.75975 9.65301C0.991007 11.454 0 13.8773 0 16.4016C0 18.9259 0.991007 21.3492 2.75975 23.1502C4.5285 24.9511 6.9336 25.9857 9.45745 26.0312H20.117V0.0094051L14.2605 0ZM14.2605 21.0432H9.45745C8.22683 21.0432 7.04662 20.5543 6.17645 19.6842C5.30627 18.814 4.81741 17.6338 4.81741 16.4032C4.81741 15.1725 5.30627 13.9923 6.17645 13.1222C7.04662 12.252 8.22683 11.7631 9.45745 11.7631H14.2605V21.0432Z" fill="#1EA4DC"/>
<path d="M98.0351 0.03125H92.1786V5.18232H98.0351V0.03125Z" fill="#1EA4DC"/>
<path d="M98.0351 7.22021H92.1786V26.0312H98.0351V7.22021Z" fill="#1EA4DC"/>
<path d="M143.266 0.03125V10.1045H133.039V0.03125H127.183V26.0311H133.039V15.961H143.266V26.0311H149.123V0.03125H143.266Z" fill="#EB5F7E"/>
<path d="M56.1304 6.77195H52.0359V0H46.1794V26.0218H56.1304C57.4096 26.0449 58.6806 25.8129 59.8692 25.3393C61.0577 24.8658 62.14 24.1601 63.0528 23.2636C63.9656 22.3672 64.6906 21.2978 65.1856 20.118C65.6805 18.9382 65.9354 17.6716 65.9354 16.3922C65.9354 15.1128 65.6805 13.8462 65.1856 12.6664C64.6906 11.4866 63.9656 10.4172 63.0528 9.52073C62.14 8.62425 61.0577 7.91862 59.8692 7.44505C58.6806 6.97148 57.4096 6.73946 56.1304 6.76254V6.77195ZM56.1304 21.0432H52.0359V11.7631H56.1304C57.3611 11.7631 58.5413 12.252 59.4114 13.1222C60.2816 13.9923 60.7705 15.1725 60.7705 16.4032C60.7705 17.6338 60.2816 18.814 59.4114 19.6842C58.5413 20.5543 57.3611 21.0432 56.1304 21.0432Z" fill="#1EA4DC"/>
<path d="M37.0061 7.19202V21.0432H30.4222C30.0494 21.0423 29.6922 20.8937 29.4289 20.6297C29.1656 20.3658 29.0177 20.0083 29.0177 19.6355V7.19202H24.0391V21.0682C24.0531 22.3926 24.5904 23.6577 25.5337 24.5875C26.477 25.5173 27.7497 26.0362 29.0741 26.0312H41.9973V7.19202H37.0061Z" fill="#1EA4DC"/>
<path d="M82.6227 7.17322H69.1008V11.4496H80.9391C81.3252 11.4492 81.7075 11.5248 82.0643 11.6723C82.4211 11.8197 82.7453 12.0361 83.0184 12.3089C83.2915 12.5817 83.5082 12.9057 83.656 13.2623C83.8038 13.6189 83.8799 14.0012 83.8799 14.3872C83.468 14.297 83.0476 14.2507 82.6259 14.2493H73.9916C70.6997 14.2493 67.8937 16.9455 67.947 20.2374C67.975 21.7818 68.6077 23.2536 69.7093 24.3365C70.8109 25.4193 72.2933 26.0267 73.838 26.0281H88.5105V13.0642C88.511 12.2907 88.359 11.5247 88.0633 10.81C87.7676 10.0953 87.3339 9.4459 86.7872 8.89883C86.2404 8.35176 85.5912 7.91779 84.8766 7.62171C84.1621 7.32562 83.3962 7.17322 82.6227 7.17322ZM77.271 21.3974H73.8662C73.5753 21.3991 73.2926 21.3015 73.0646 21.1208C72.8366 20.9401 72.677 20.6872 72.6122 20.4036C72.5722 20.22 72.5741 20.0298 72.6175 19.847C72.661 19.6642 72.745 19.4935 72.8632 19.3476C72.9815 19.2016 73.1311 19.0841 73.3009 19.0037C73.4707 18.9233 73.6564 18.882 73.8443 18.883H82.6227C82.9553 18.883 83.2743 19.0152 83.5095 19.2503C83.7447 19.4855 83.8768 19.8045 83.8768 20.1371V21.3912H77.271V21.3974Z" fill="#1EA4DC"/>
<path d="M124.709 10.4901H107.663C107.703 9.10336 108.282 7.78686 109.277 6.82032C110.273 5.85379 111.606 5.31339 112.993 5.31397H124.69V0.325928H112.987C110.251 0.332551 107.63 1.42206 105.696 3.35618C103.762 5.2903 102.672 7.91162 102.666 10.6469V26.0311H107.657V15.4813H124.709V10.4901Z" fill="#EB5F7E"/>
</svg>
