<svg width="25" height="18" viewBox="0 0 25 18" fill="none" xmlns="http://www.w3.org/2000/svg">
<path d="M10.7121 2.62574L4.88235 8.60624C4.77996 8.71128 4.72266 8.85217 4.72266 8.99886C4.72266 9.14555 4.77996 9.28644 4.88235 9.39149L10.7121 15.3742C10.7598 15.4232 10.8168 15.4622 10.8798 15.4887C10.9428 15.5153 11.0105 15.529 11.0789 15.529C11.1472 15.529 11.2149 15.5153 11.2779 15.4887C11.3409 15.4622 11.3979 15.4232 11.4456 15.3742C11.5437 15.2738 11.5987 15.1389 11.5987 14.9985C11.5987 14.8581 11.5437 14.7232 11.4456 14.6227L5.96348 8.99886L11.4456 3.37611C11.5434 3.2757 11.5981 3.14108 11.5981 3.00092C11.5981 2.86076 11.5434 2.72614 11.4456 2.62574C11.3979 2.57675 11.3409 2.53781 11.2779 2.51123C11.2149 2.48464 11.1472 2.47095 11.0789 2.47095C11.0105 2.47095 10.9428 2.48464 10.8798 2.51123C10.8168 2.53781 10.7598 2.57675 10.7121 2.62574Z" fill="white"/>
<path d="M17.7121 2.62574L11.8824 8.60624C11.78 8.71128 11.7227 8.85217 11.7227 8.99886C11.7227 9.14555 11.78 9.28644 11.8824 9.39149L17.7121 15.3742C17.7598 15.4232 17.8168 15.4622 17.8798 15.4887C17.9428 15.5153 18.0105 15.529 18.0789 15.529C18.1472 15.529 18.2149 15.5153 18.2779 15.4887C18.3409 15.4622 18.3979 15.4232 18.4456 15.3742C18.5437 15.2738 18.5987 15.1389 18.5987 14.9985C18.5987 14.8581 18.5437 14.7232 18.4456 14.6227L12.9635 8.99886L18.4456 3.37611C18.5434 3.2757 18.5981 3.14108 18.5981 3.00092C18.5981 2.86076 18.5434 2.72614 18.4456 2.62574C18.3979 2.57675 18.3409 2.53781 18.2779 2.51123C18.2149 2.48464 18.1472 2.47095 18.0789 2.47095C18.0105 2.47095 17.9428 2.48464 17.8798 2.51123C17.8168 2.53781 17.7598 2.57675 17.7121 2.62574Z" fill="white"/>
</svg>
